<?xml version="1.0" encoding="utf-8"?>
<!-- Generator: Adobe Illustrator 16.0.0, SVG Export Plug-In . SVG Version: 6.00 Build 0)  -->
<!DOCTYPE svg PUBLIC "-//W3C//DTD SVG 1.1//EN" "http://www.w3.org/Graphics/SVG/1.1/DTD/svg11.dtd">
<svg version="1.1" id="Layer_1" xmlns="http://www.w3.org/2000/svg" xmlns:xlink="http://www.w3.org/1999/xlink" x="0px" y="0px"
	 width="755px" height="66px" viewBox="-633.832 400.5 755 66" enable-background="new -633.832 400.5 755 66" xml:space="preserve"
	>
<g id="Facebook">
	<path fill="#FFFFFF" d="M-617.332,401.367c-8.635,0-15.633,6.999-15.633,15.633c0,8.632,6.999,15.633,15.633,15.633
		c8.633,0,15.633-7.001,15.633-15.633C-601.699,408.366-608.699,401.367-617.332,401.367L-617.332,401.367z"/>
	<path fill="#C7C7C7" d="M-617.332,401.5c8.547,0,15.5,6.953,15.5,15.5c0,8.546-6.953,15.5-15.5,15.5s-15.5-6.954-15.5-15.5
		C-632.832,408.453-625.879,401.5-617.332,401.5 M-617.332,400.5c-9.113,0-16.5,7.387-16.5,16.5c0,9.111,7.387,16.5,16.5,16.5
		c9.111,0,16.5-7.389,16.5-16.5C-600.832,407.887-608.221,400.5-617.332,400.5L-617.332,400.5z"/>
	<path fill="#333333" d="M-613.83,414.005h-2.385v-1.764c0-0.663,0.389-0.817,0.662-0.817s1.684,0,1.684,0v-2.913l-2.318-0.011
		c-2.572,0-3.158,2.172-3.158,3.563v1.941h-1.487v3.001h1.487c0,3.853,0,8.493,0,8.493h3.132c0,0,0-4.688,0-8.493h2.11
		L-613.83,414.005z"/>
	<path fill="#3B5997" d="M-617.332,433.5c9.111,0,16.5,7.387,16.5,16.5s-7.389,16.5-16.5,16.5c-9.113,0-16.5-7.389-16.5-16.501
		S-626.445,433.5-617.332,433.5z"/>
	<path fill="#FFFFFF" d="M-613.83,447.004h-2.385v-1.764c0-0.662,0.389-0.817,0.662-0.817s1.684,0,1.684,0v-2.913l-2.318-0.01
		c-2.572,0-3.158,2.172-3.158,3.563v1.941h-1.487v3.002h1.487c0,3.852,0,8.492,0,8.492h3.132c0,0,0-4.686,0-8.492h2.11
		L-613.83,447.004z"/>
</g>
<g id="Twitter">
	<path fill="#FFFFFF" d="M-577.332,401.367c-8.635,0-15.633,6.999-15.633,15.633c0,8.632,6.999,15.633,15.633,15.633
		c8.633,0,15.633-7.001,15.633-15.633C-561.699,408.366-568.699,401.367-577.332,401.367L-577.332,401.367z"/>
	<path fill="#C7C7C7" d="M-577.332,401.5c8.547,0,15.5,6.953,15.5,15.5c0,8.546-6.953,15.5-15.5,15.5s-15.5-6.954-15.5-15.5
		C-592.832,408.453-585.879,401.5-577.332,401.5 M-577.332,400.5c-9.113,0-16.5,7.387-16.5,16.5c0,9.111,7.387,16.5,16.5,16.5
		c9.111,0,16.5-7.389,16.5-16.5C-560.832,407.887-568.221,400.5-577.332,400.5L-577.332,400.5z"/>
	<path fill="#333333" d="M-572.236,412.982c-0.01-0.004-0.021-0.018-0.031-0.027c-0.635-0.573-1.383-0.848-2.241-0.814l-0.026-0.059
		c0.005-0.005,0.012-0.005,0.016-0.005c0.779-0.172,1.24-0.351,1.377-0.542c0.047-0.156-0.01-0.241-0.181-0.264
		c-0.392,0.049-0.752,0.129-1.075,0.252c0.408-0.252,0.567-0.429,0.478-0.521c-0.403,0.011-0.837,0.21-1.293,0.603
		c0.169-0.279,0.233-0.431,0.19-0.457c-0.217,0.146-0.408,0.301-0.572,0.467c-0.344,0.371-0.619,0.714-0.832,1.025l-0.01,0.026
		c-0.545,0.853-0.928,1.711-1.156,2.586l-0.084,0.063l-0.016,0.017c-0.328-0.397-0.721-0.729-1.191-0.999
		c-0.557-0.35-1.209-0.682-1.961-1.003c-0.82-0.408-1.652-0.746-2.495-1.008c-0.005,0.907,0.456,1.631,1.372,2.157v0.016
		c-0.322-0.006-0.635,0.043-0.938,0.134c0.059,0.843,0.678,1.422,1.854,1.743l-0.006,0.016c-0.459-0.025-0.842,0.131-1.139,0.451
		c0.387,0.73,1.07,1.078,2.061,1.053c-0.195,0.097-0.35,0.202-0.449,0.321c-0.18,0.183-0.239,0.397-0.18,0.644
		c0.211,0.371,0.593,0.543,1.154,0.516l0,0l0.032,0.038c-0.005,0.005-0.011,0.011-0.017,0.016c-0.969,0.966-2.139,1.4-3.512,1.31
		l-0.021,0.011c-0.837-0.006-1.731-0.392-2.701-1.164c0.976,1.353,2.267,2.328,3.867,2.94c1.833,0.584,3.666,0.627,5.493,0.127
		h0.031c1.775-0.493,3.279-1.508,4.52-3.041c0.572-0.805,0.934-1.571,1.076-2.308c0.927,0.032,1.595-0.225,2.007-0.771l-0.011-0.017
		c-0.307,0.105-0.911,0.074-1.807-0.103v-0.097c0-0.006,0-0.006,0.006,0c0.979-0.107,1.558-0.414,1.742-0.918
		c-0.684,0.259-1.355,0.263-2.023,0.021C-571.049,414.527-571.482,413.718-572.236,412.982z"/>
	<path fill="#00ACED" d="M-577.332,433.5c9.111,0,16.5,7.387,16.5,16.5c0,9.111-7.389,16.5-16.5,16.5c-9.113,0-16.5-7.389-16.5-16.5
		C-593.832,440.887-586.445,433.5-577.332,433.5z"/>
	<path fill="#FFFFFF" d="M-572.236,445.982c-0.01-0.004-0.021-0.018-0.031-0.027c-0.635-0.573-1.383-0.848-2.241-0.814l-0.026-0.059
		c0.005-0.006,0.012-0.006,0.016-0.006c0.779-0.172,1.24-0.35,1.377-0.542c0.047-0.155-0.01-0.241-0.181-0.263
		c-0.392,0.047-0.752,0.129-1.075,0.252c0.408-0.252,0.567-0.431,0.478-0.521c-0.403,0.012-0.837,0.21-1.293,0.602
		c0.169-0.278,0.233-0.431,0.19-0.457c-0.217,0.146-0.408,0.303-0.572,0.468c-0.344,0.37-0.619,0.714-0.832,1.024l-0.01,0.026
		c-0.545,0.854-0.928,1.712-1.156,2.587l-0.084,0.064l-0.016,0.016c-0.328-0.396-0.721-0.729-1.191-0.999
		c-0.557-0.349-1.209-0.681-1.961-1.002c-0.82-0.408-1.652-0.746-2.495-1.009c-0.005,0.906,0.456,1.631,1.372,2.156v0.017
		c-0.322-0.006-0.635,0.043-0.938,0.135c0.059,0.843,0.678,1.422,1.854,1.742l-0.006,0.017c-0.459-0.025-0.842,0.131-1.139,0.451
		c0.387,0.73,1.07,1.078,2.061,1.053c-0.195,0.097-0.35,0.203-0.449,0.321c-0.18,0.183-0.239,0.397-0.18,0.644
		c0.211,0.371,0.593,0.543,1.154,0.516l0,0l0.032,0.038c-0.005,0.005-0.011,0.011-0.017,0.017c-0.969,0.965-2.139,1.4-3.512,1.309
		l-0.021,0.012c-0.837-0.006-1.731-0.393-2.701-1.164c0.976,1.352,2.267,2.328,3.867,2.939c1.833,0.586,3.666,0.629,5.493,0.129
		h0.031c1.775-0.493,3.279-1.508,4.52-3.043c0.572-0.805,0.934-1.57,1.076-2.307c0.927,0.031,1.595-0.226,2.007-0.771l-0.011-0.018
		c-0.307,0.106-0.911,0.075-1.807-0.102v-0.098c0-0.004,0-0.004,0.006,0c0.979-0.106,1.558-0.412,1.742-0.918
		c-0.684,0.259-1.355,0.264-2.023,0.021C-571.049,447.527-571.482,446.718-572.236,445.982z"/>
</g>
<g id="Google_Plus">
	<path fill="#FFFFFF" d="M-537.332,401.367c-8.635,0-15.633,6.999-15.633,15.633c0,8.632,6.999,15.633,15.633,15.633
		c8.633,0,15.633-7.001,15.633-15.633C-521.699,408.366-528.699,401.367-537.332,401.367L-537.332,401.367z"/>
	<path fill="#C7C7C7" d="M-537.332,401.5c8.547,0,15.5,6.953,15.5,15.5s-6.953,15.5-15.5,15.5s-15.5-6.954-15.5-15.5
		C-552.832,408.453-545.879,401.5-537.332,401.5 M-537.332,400.5c-9.113,0-16.5,7.387-16.5,16.5c0,9.111,7.387,16.5,16.5,16.5
		s16.5-7.389,16.5-16.5C-520.832,407.887-528.219,400.5-537.332,400.5L-537.332,400.5z"/>
	<path fill="#333333" d="M-538.125,419.541l2.74-0.086v2.504c0,0.355,0.004,0.412-0.551,0.602c-0.783,0.217-1.666,0.26-2.473,0.188
		c-2.736-0.24-4.824-2.519-5.318-5.358c-0.469-2.697,0.738-5.248,2.779-6.302c0.997-0.514,2.192-0.755,3.488-0.317
		c0.813,0.273,1.55,0.768,2.193,1.448l-0.448,0.857l0.842-0.252l1.299-1.396c-2.204-1.924-5.985-2.177-8.491-0.842
		c-2.18,1.161-3.766,3.467-3.843,6.042c-0.082,2.711,1.414,4.854,2.931,5.933c2.506,1.779,6.85,1.383,9.465-0.008v-3.1l0.609-0.751
		h-3.813L-538.125,419.541z M-529.904,415.417v-2.144h-0.914v2.144h-2.143v0.901h2.143v2.158h0.914v-2.156h2.143v-0.902
		L-529.904,415.417L-529.904,415.417z"/>
	<path fill="#30C139" d="M-537.332,433.5c9.113,0,16.5,7.387,16.5,16.5c0,9.111-7.387,16.5-16.5,16.5s-16.5-7.389-16.5-16.5
		C-553.832,440.887-546.445,433.5-537.332,433.5z"/>
	<path fill="#FFFFFF" d="M-538.125,452.541l2.74-0.086v2.504c0,0.355,0.004,0.412-0.551,0.602c-0.783,0.217-1.666,0.26-2.473,0.188
		c-2.736-0.24-4.824-2.521-5.318-5.358c-0.469-2.697,0.738-5.248,2.779-6.302c0.997-0.514,2.192-0.756,3.488-0.317
		c0.813,0.272,1.55,0.768,2.193,1.449l-0.448,0.856l0.842-0.252l1.299-1.396c-2.204-1.923-5.985-2.177-8.491-0.841
		c-2.18,1.16-3.766,3.468-3.843,6.041c-0.082,2.711,1.414,4.854,2.931,5.935c2.506,1.778,6.85,1.383,9.465-0.008v-3.101l0.609-0.752
		h-3.813L-538.125,452.541z M-529.904,448.418v-2.145h-0.914v2.145h-2.143v0.902h2.143v2.158h0.914v-2.158h2.143v-0.902H-529.904z"
		/>
</g>
<g id="Pinterest">
	<path fill="#FFFFFF" d="M-497.332,401.367c-8.635,0-15.633,6.999-15.633,15.633c0,8.632,6.999,15.633,15.633,15.633
		c8.633,0,15.633-7.001,15.633-15.633C-481.699,408.366-488.699,401.367-497.332,401.367L-497.332,401.367z"/>
	<path fill="#C7C7C7" d="M-497.332,401.5c8.547,0,15.5,6.953,15.5,15.5s-6.953,15.5-15.5,15.5s-15.5-6.954-15.5-15.5
		C-512.832,408.453-505.879,401.5-497.332,401.5 M-497.332,400.5c-9.113,0-16.5,7.387-16.5,16.5s7.387,16.5,16.5,16.5
		s16.5-7.389,16.5-16.5C-480.832,407.887-488.219,400.5-497.332,400.5L-497.332,400.5z"/>
	<path fill="#333333" d="M-497.331,407.5c-5.246,0-9.501,4.253-9.501,9.5c0,3.891,2.34,7.232,5.688,8.702
		c-0.025-0.663-0.004-1.459,0.166-2.183c0.183-0.771,1.223-5.177,1.223-5.177s-0.305-0.606-0.305-1.503
		c0-1.408,0.816-2.459,1.834-2.459c0.862,0,1.281,0.648,1.281,1.426c0,0.869-0.556,2.168-0.841,3.373
		c-0.237,1.008,0.506,1.829,1.5,1.829c1.802,0,3.013-2.312,3.013-5.051c0-2.082-1.402-3.642-3.953-3.642
		c-2.881,0-4.676,2.149-4.676,4.551c0,0.828,0.242,1.41,0.625,1.863c0.176,0.207,0.2,0.291,0.137,0.528
		c-0.045,0.175-0.15,0.597-0.193,0.763c-0.063,0.24-0.258,0.326-0.477,0.238c-1.326-0.542-1.944-1.996-1.944-3.629
		c0-2.699,2.276-5.936,6.79-5.936c3.627,0,6.014,2.625,6.014,5.443c0,3.727-2.07,6.51-5.125,6.51c-1.025,0-1.99-0.554-2.322-1.184
		c0,0-0.551,2.189-0.668,2.612c-0.201,0.731-0.596,1.464-0.955,2.034c0.854,0.253,1.756,0.39,2.691,0.39c5.246,0,9.5-4.253,9.5-9.5
		C-487.831,411.753-492.085,407.5-497.331,407.5z"/>
	<path fill="#CB2026" d="M-497.332,433.5c9.113,0,16.5,7.387,16.5,16.5s-7.387,16.5-16.5,16.5s-16.5-7.387-16.5-16.5
		C-513.832,440.889-506.445,433.5-497.332,433.5z"/>
	<path fill="#FFFFFF" d="M-497.331,440.5c-5.246,0-9.501,4.254-9.501,9.5c0,3.891,2.34,7.232,5.688,8.702
		c-0.025-0.663-0.004-1.459,0.166-2.183c0.183-0.771,1.223-5.177,1.223-5.177s-0.305-0.606-0.305-1.503
		c0-1.406,0.816-2.459,1.834-2.459c0.862,0,1.281,0.648,1.281,1.426c0,0.869-0.556,2.168-0.841,3.373
		c-0.237,1.008,0.506,1.828,1.5,1.828c1.802,0,3.013-2.313,3.013-5.051c0-2.082-1.402-3.641-3.953-3.641
		c-2.881,0-4.676,2.148-4.676,4.55c0,0.827,0.242,1.411,0.625,1.862c0.176,0.207,0.2,0.291,0.137,0.529
		c-0.045,0.176-0.15,0.596-0.193,0.764c-0.063,0.239-0.258,0.326-0.477,0.236c-1.326-0.541-1.944-1.994-1.944-3.629
		c0-2.699,2.276-5.936,6.79-5.936c3.627,0,6.014,2.625,6.014,5.442c0,3.728-2.07,6.511-5.125,6.511c-1.025,0-1.99-0.555-2.322-1.185
		c0,0-0.551,2.188-0.668,2.612c-0.201,0.732-0.596,1.464-0.955,2.035c0.854,0.252,1.756,0.389,2.691,0.389
		c5.246,0,9.5-4.253,9.5-9.501C-487.831,444.754-492.085,440.5-497.331,440.5z"/>
</g>
<g id="Dribble">
	<path fill="#FFFFFF" d="M-457.332,401.367c-8.635,0-15.633,6.999-15.633,15.633c0,8.632,6.999,15.633,15.633,15.633
		c8.633,0,15.633-7.001,15.633-15.633C-441.699,408.366-448.699,401.367-457.332,401.367L-457.332,401.367z"/>
	<path fill="#C7C7C7" d="M-457.332,401.5c8.547,0,15.5,6.953,15.5,15.5s-6.953,15.5-15.5,15.5s-15.5-6.953-15.5-15.5
		S-465.879,401.5-457.332,401.5 M-457.332,400.5c-9.113,0-16.5,7.387-16.5,16.5s7.387,16.5,16.5,16.5s16.5-7.389,16.5-16.5
		C-440.832,407.887-448.219,400.5-457.332,400.5L-457.332,400.5z"/>
	<path fill-rule="evenodd" clip-rule="evenodd" fill="#333333" d="M-448.045,415.092c-0.124-0.609-0.311-1.209-0.553-1.781
		c-0.237-0.563-0.531-1.104-0.874-1.611c-0.339-0.502-0.729-0.973-1.157-1.402c-0.429-0.428-0.9-0.818-1.402-1.156
		c-0.506-0.344-1.048-0.637-1.61-0.875c-0.572-0.24-1.172-0.428-1.781-0.553c-0.624-0.127-1.267-0.193-1.908-0.193
		c-0.644,0-1.285,0.066-1.91,0.193c-0.608,0.125-1.209,0.313-1.78,0.553c-0.563,0.238-1.105,0.531-1.611,0.875
		c-0.502,0.338-0.975,0.729-1.403,1.156c-0.428,0.43-0.816,0.9-1.156,1.402c-0.342,0.508-0.637,1.049-0.873,1.611
		c-0.243,0.572-0.429,1.172-0.554,1.781c-0.128,0.623-0.192,1.266-0.192,1.908s0.064,1.285,0.192,1.91
		c0.125,0.609,0.311,1.209,0.554,1.781c0.236,0.561,0.531,1.104,0.873,1.609c0.34,0.504,0.729,0.975,1.156,1.402
		c0.429,0.43,0.901,0.818,1.403,1.158c0.506,0.342,1.049,0.635,1.611,0.875c0.571,0.24,1.172,0.426,1.78,0.551
		c0.625,0.129,1.267,0.193,1.91,0.193c0.642,0,1.284-0.064,1.908-0.193c0.609-0.125,1.209-0.311,1.781-0.551
		c0.563-0.24,1.104-0.533,1.61-0.875c0.502-0.34,0.974-0.729,1.402-1.158c0.429-0.428,0.818-0.898,1.157-1.402
		c0.343-0.506,0.637-1.049,0.874-1.609c0.242-0.572,0.429-1.172,0.553-1.781c0.128-0.625,0.193-1.268,0.193-1.91
		S-447.917,415.715-448.045,415.092z M-449.238,416.92c-0.117-0.025-2.857-0.615-5.64-0.266c-0.057-0.139-0.114-0.277-0.174-0.418
		c-0.169-0.395-0.35-0.787-0.538-1.174c3.197-1.305,4.495-3.182,4.511-3.203C-449.943,413.236-449.257,414.998-449.238,416.92z
		 M-451.984,410.924c-0.021,0.033-1.173,1.787-4.229,2.932c-1.385-2.543-2.904-4.563-3.026-4.723
		c0.612-0.148,1.25-0.229,1.908-0.229C-455.282,408.904-453.411,409.668-451.984,410.924z M-459.271,409.139
		c-0.001,0.002-0.002,0.002-0.002,0.002s-0.009,0.002-0.024,0.006C-459.288,409.145-459.279,409.143-459.271,409.139z
		 M-460.786,409.678c0.107,0.145,1.604,2.174,3.007,4.666c-3.888,1.031-7.262,0.992-7.476,0.988
		C-464.729,412.824-463.044,410.744-460.786,409.678z M-465.428,417c0-0.086,0.004-0.17,0.007-0.256
		c0.143,0.004,4.144,0.094,8.312-1.154c0.232,0.455,0.454,0.916,0.657,1.377c-0.107,0.031-0.213,0.063-0.319,0.098
		c-4.369,1.412-6.585,5.342-6.585,5.342s0.002,0.004,0.003,0.004C-464.643,420.977-465.428,419.08-465.428,417z M-457.331,425.096
		c-1.96,0-3.758-0.695-5.158-1.854c0.107,0.086,0.182,0.141,0.182,0.141s1.552-3.385,6.354-5.057
		c0.019-0.008,0.036-0.012,0.054-0.018c1.139,2.959,1.609,5.439,1.729,6.146C-455.143,424.867-456.211,425.096-457.331,425.096z
		 M-452.808,423.715c-0.082-0.488-0.514-2.863-1.576-5.783c2.614-0.418,4.879,0.299,5.045,0.354
		C-449.699,420.541-450.989,422.486-452.808,423.715z"/>
	<path fill="#E3528A" d="M-457.332,433.5c-9.113,0-16.5,7.387-16.5,16.5s7.387,16.5,16.5,16.5s16.5-7.389,16.5-16.5
		C-440.832,440.887-448.219,433.5-457.332,433.5L-457.332,433.5z"/>
	<path fill-rule="evenodd" clip-rule="evenodd" fill="#FFFFFF" d="M-448.045,448.092c-0.124-0.609-0.311-1.209-0.553-1.781
		c-0.237-0.563-0.531-1.104-0.874-1.611c-0.339-0.502-0.729-0.973-1.157-1.402c-0.429-0.428-0.9-0.818-1.402-1.156
		c-0.506-0.344-1.048-0.637-1.61-0.875c-0.572-0.24-1.172-0.428-1.781-0.553c-0.624-0.127-1.267-0.193-1.908-0.193
		c-0.644,0-1.285,0.066-1.91,0.193c-0.608,0.125-1.209,0.313-1.78,0.553c-0.563,0.238-1.105,0.531-1.611,0.875
		c-0.502,0.338-0.975,0.729-1.403,1.156c-0.428,0.43-0.816,0.9-1.156,1.402c-0.342,0.508-0.637,1.049-0.873,1.611
		c-0.243,0.572-0.429,1.172-0.554,1.781c-0.128,0.623-0.192,1.266-0.192,1.908s0.064,1.285,0.192,1.91
		c0.125,0.609,0.311,1.209,0.554,1.781c0.236,0.561,0.531,1.104,0.873,1.609c0.34,0.504,0.729,0.975,1.156,1.402
		c0.429,0.43,0.901,0.818,1.403,1.158c0.506,0.342,1.049,0.635,1.611,0.875c0.571,0.24,1.172,0.426,1.78,0.551
		c0.625,0.129,1.267,0.193,1.91,0.193c0.642,0,1.284-0.064,1.908-0.193c0.609-0.125,1.209-0.311,1.781-0.551
		c0.563-0.24,1.104-0.533,1.61-0.875c0.502-0.34,0.974-0.729,1.402-1.158c0.429-0.428,0.818-0.898,1.157-1.402
		c0.343-0.506,0.637-1.049,0.874-1.609c0.242-0.572,0.429-1.172,0.553-1.781c0.128-0.625,0.193-1.268,0.193-1.91
		S-447.917,448.715-448.045,448.092z M-449.238,449.92c-0.117-0.025-2.857-0.615-5.64-0.266c-0.057-0.139-0.114-0.277-0.174-0.418
		c-0.169-0.395-0.35-0.787-0.538-1.174c3.197-1.305,4.495-3.182,4.511-3.203C-449.943,446.236-449.257,447.998-449.238,449.92z
		 M-451.984,443.924c-0.021,0.033-1.173,1.787-4.229,2.932c-1.385-2.543-2.904-4.563-3.026-4.723
		c0.612-0.148,1.25-0.229,1.908-0.229C-455.282,441.904-453.411,442.668-451.984,443.924z M-459.271,442.139
		c-0.001,0.002-0.002,0.002-0.002,0.002s-0.009,0.002-0.024,0.006C-459.288,442.145-459.279,442.143-459.271,442.139z
		 M-460.786,442.678c0.107,0.145,1.604,2.174,3.007,4.666c-3.888,1.031-7.262,0.992-7.476,0.988
		C-464.729,445.824-463.044,443.744-460.786,442.678z M-465.428,450c0-0.086,0.004-0.17,0.007-0.256
		c0.143,0.004,4.144,0.094,8.312-1.154c0.232,0.455,0.454,0.916,0.657,1.377c-0.107,0.031-0.213,0.063-0.319,0.098
		c-4.369,1.412-6.585,5.342-6.585,5.342s0.002,0.004,0.003,0.004C-464.643,453.977-465.428,452.08-465.428,450z M-457.331,458.096
		c-1.96,0-3.758-0.695-5.158-1.854c0.107,0.086,0.182,0.141,0.182,0.141s1.552-3.385,6.354-5.057
		c0.019-0.008,0.036-0.012,0.054-0.018c1.139,2.959,1.609,5.439,1.729,6.146C-455.143,457.867-456.211,458.096-457.331,458.096z
		 M-452.808,456.715c-0.082-0.488-0.514-2.863-1.576-5.783c2.614-0.418,4.879,0.299,5.045,0.354
		C-449.699,453.541-450.989,455.486-452.808,456.715z"/>
</g>
<g id="Skype">
	<path fill="#FFFFFF" d="M-417.332,401.367c-8.635,0-15.633,6.999-15.633,15.633c0,8.632,6.999,15.633,15.633,15.633
		c8.633,0,15.633-7.001,15.633-15.633C-401.699,408.366-408.699,401.367-417.332,401.367L-417.332,401.367z"/>
	<path fill="#C7C7C7" d="M-417.332,401.5c8.547,0,15.5,6.953,15.5,15.5s-6.953,15.5-15.5,15.5s-15.5-6.953-15.5-15.5
		S-425.879,401.5-417.332,401.5 M-417.332,400.5c-9.113,0-16.5,7.387-16.5,16.5s7.387,16.5,16.5,16.5s16.5-7.389,16.5-16.5
		C-400.832,407.887-408.219,400.5-417.332,400.5L-417.332,400.5z"/>
	<path fill="#333333" d="M-409.228,418.853c0.124-0.567,0.189-1.155,0.189-1.761c0-4.53-3.672-8.201-8.203-8.201
		c-0.479,0-0.947,0.04-1.402,0.118c-0.733-0.461-1.601-0.729-2.531-0.729c-2.627,0-4.757,2.13-4.757,4.758
		c0,0.878,0.24,1.7,0.653,2.406c-0.108,0.532-0.165,1.084-0.165,1.648c0,4.531,3.672,8.203,8.203,8.203
		c0.513,0,1.015-0.048,1.502-0.137c0.67,0.359,1.435,0.563,2.249,0.563c2.627,0,4.757-2.129,4.757-4.756
		C-408.733,420.206-408.911,419.49-409.228,418.853z M-413.033,421.012c-0.379,0.537-0.94,0.964-1.667,1.265
		c-0.719,0.3-1.581,0.45-2.563,0.45c-1.178,0-2.166-0.207-2.937-0.616c-0.552-0.297-1.005-0.7-1.351-1.197
		c-0.348-0.502-0.524-1.001-0.524-1.483c0-0.299,0.115-0.561,0.342-0.773c0.225-0.212,0.512-0.318,0.856-0.318
		c0.282,0,0.525,0.083,0.723,0.25c0.188,0.161,0.35,0.397,0.48,0.704c0.146,0.334,0.304,0.615,0.471,0.835
		c0.161,0.214,0.393,0.393,0.688,0.531c0.297,0.14,0.698,0.213,1.191,0.213c0.679,0,1.235-0.144,1.653-0.431
		c0.409-0.277,0.607-0.613,0.607-1.023c0-0.323-0.104-0.578-0.317-0.778c-0.223-0.208-0.518-0.369-0.875-0.481
		c-0.372-0.117-0.878-0.242-1.504-0.375c-0.852-0.181-1.575-0.397-2.15-0.642c-0.588-0.251-1.063-0.598-1.41-1.031
		c-0.352-0.44-0.531-0.994-0.531-1.645c0-0.619,0.188-1.179,0.557-1.658c0.367-0.479,0.903-0.853,1.592-1.105
		c0.681-0.253,1.491-0.38,2.407-0.38c0.732,0,1.376,0.085,1.914,0.251c0.542,0.169,0.997,0.396,1.355,0.676
		c0.36,0.282,0.629,0.582,0.798,0.896c0.169,0.316,0.256,0.63,0.256,0.935c0,0.293-0.113,0.561-0.337,0.793
		c-0.224,0.233-0.507,0.352-0.842,0.352c-0.303,0-0.542-0.074-0.707-0.22c-0.154-0.136-0.313-0.349-0.49-0.651
		c-0.204-0.39-0.452-0.695-0.736-0.912c-0.276-0.21-0.737-0.314-1.37-0.314c-0.588,0-1.066,0.117-1.421,0.35
		c-0.343,0.224-0.509,0.481-0.509,0.787c0,0.187,0.053,0.342,0.164,0.478c0.116,0.143,0.281,0.266,0.488,0.371
		c0.216,0.108,0.438,0.194,0.66,0.255c0.229,0.064,0.611,0.157,1.136,0.279c0.664,0.142,1.274,0.303,1.813,0.475
		c0.546,0.176,1.018,0.391,1.403,0.642c0.393,0.254,0.704,0.583,0.924,0.976c0.222,0.395,0.333,0.88,0.333,1.446
		C-412.46,419.857-412.653,420.474-413.033,421.012z"/>
	<path fill="#00B0F6" d="M-417.332,433.5c-9.113,0-16.5,7.387-16.5,16.5s7.387,16.5,16.5,16.5s16.5-7.389,16.5-16.5
		C-400.832,440.887-408.219,433.5-417.332,433.5L-417.332,433.5z"/>
	<path fill="#FFFFFF" d="M-409.228,451.853c0.124-0.567,0.189-1.155,0.189-1.761c0-4.53-3.672-8.201-8.203-8.201
		c-0.479,0-0.947,0.04-1.402,0.118c-0.733-0.461-1.601-0.729-2.531-0.729c-2.627,0-4.757,2.13-4.757,4.758
		c0,0.878,0.24,1.7,0.653,2.406c-0.108,0.532-0.165,1.084-0.165,1.648c0,4.531,3.672,8.203,8.203,8.203
		c0.513,0,1.015-0.048,1.502-0.137c0.67,0.359,1.435,0.563,2.249,0.563c2.627,0,4.757-2.129,4.757-4.756
		C-408.733,453.206-408.911,452.49-409.228,451.853z M-413.033,454.012c-0.379,0.537-0.94,0.964-1.667,1.265
		c-0.719,0.3-1.581,0.45-2.563,0.45c-1.178,0-2.166-0.207-2.937-0.616c-0.552-0.297-1.005-0.7-1.351-1.197
		c-0.348-0.502-0.524-1.001-0.524-1.483c0-0.299,0.115-0.561,0.342-0.773c0.225-0.212,0.512-0.318,0.856-0.318
		c0.282,0,0.525,0.083,0.723,0.25c0.188,0.161,0.35,0.397,0.48,0.704c0.146,0.334,0.304,0.615,0.471,0.835
		c0.161,0.214,0.393,0.393,0.688,0.531c0.297,0.14,0.698,0.213,1.191,0.213c0.679,0,1.235-0.144,1.653-0.431
		c0.409-0.277,0.607-0.613,0.607-1.023c0-0.323-0.104-0.578-0.317-0.778c-0.223-0.208-0.518-0.369-0.875-0.481
		c-0.372-0.117-0.878-0.242-1.504-0.375c-0.852-0.181-1.575-0.397-2.15-0.642c-0.588-0.251-1.063-0.598-1.41-1.031
		c-0.352-0.44-0.531-0.994-0.531-1.645c0-0.619,0.188-1.179,0.557-1.658c0.367-0.479,0.903-0.853,1.592-1.105
		c0.681-0.253,1.491-0.38,2.407-0.38c0.732,0,1.376,0.085,1.914,0.251c0.542,0.169,0.997,0.396,1.355,0.676
		c0.36,0.282,0.629,0.582,0.798,0.896c0.169,0.316,0.256,0.63,0.256,0.935c0,0.293-0.113,0.561-0.337,0.793
		c-0.224,0.233-0.507,0.352-0.842,0.352c-0.303,0-0.542-0.074-0.707-0.22c-0.154-0.136-0.313-0.349-0.49-0.651
		c-0.204-0.39-0.452-0.695-0.736-0.912c-0.276-0.21-0.737-0.314-1.37-0.314c-0.588,0-1.066,0.117-1.421,0.35
		c-0.343,0.224-0.509,0.481-0.509,0.787c0,0.187,0.053,0.342,0.164,0.478c0.116,0.143,0.281,0.266,0.488,0.371
		c0.216,0.108,0.438,0.194,0.66,0.255c0.229,0.064,0.611,0.157,1.136,0.279c0.664,0.142,1.274,0.303,1.813,0.475
		c0.546,0.176,1.018,0.391,1.403,0.642c0.393,0.254,0.704,0.583,0.924,0.976c0.222,0.395,0.333,0.88,0.333,1.446
		C-412.46,452.857-412.653,453.474-413.033,454.012z"/>
</g>
<g id="Linkedin">
	<path fill="#FFFFFF" d="M-377.332,401.367c-8.635,0-15.633,6.999-15.633,15.633c0,8.632,6.999,15.633,15.633,15.633
		c8.633,0,15.633-7.001,15.633-15.633C-361.699,408.366-368.699,401.367-377.332,401.367L-377.332,401.367z"/>
	<path fill="#C7C7C7" d="M-377.332,401.5c8.547,0,15.5,6.953,15.5,15.5s-6.953,15.5-15.5,15.5s-15.5-6.953-15.5-15.5
		S-385.879,401.5-377.332,401.5 M-377.332,400.5c-9.113,0-16.5,7.387-16.5,16.5s7.387,16.5,16.5,16.5s16.5-7.389,16.5-16.5
		C-360.832,407.887-368.219,400.5-377.332,400.5L-377.332,400.5z"/>
	<g>
		<path fill="#333333" d="M-373.397,413.485c-1.465,0-2.121,0.804-2.488,1.37v0.027h-0.019c0.006-0.008,0.013-0.019,0.019-0.027
			v-1.175h-2.76c0.036,0.778,0,8.302,0,8.302h2.76v-4.637c0-0.249,0.018-0.495,0.091-0.673c0.2-0.495,0.654-1.011,1.416-1.011
			c1,0,1.398,0.763,1.398,1.878v4.442h2.76v-4.761C-370.22,414.672-371.582,413.485-373.397,413.485z"/>
		<path fill="#333333" d="M-381.534,409.676c-0.944,0-1.561,0.621-1.561,1.436c0,0.796,0.599,1.435,1.525,1.435h0.018
			c0.962,0,1.562-0.639,1.562-1.435C-380.008,410.297-380.589,409.676-381.534,409.676z"/>
		<rect x="-382.932" y="413.681" fill="#333333" width="2.761" height="8.302"/>
	</g>
	<path fill="#005A87" d="M-377.332,433.5c-9.113,0-16.5,7.387-16.5,16.5s7.387,16.5,16.5,16.5s16.5-7.389,16.5-16.5
		C-360.832,440.887-368.219,433.5-377.332,433.5L-377.332,433.5z"/>
	<g>
		<path fill="#FFFFFF" d="M-373.397,446.485c-1.465,0-2.121,0.804-2.488,1.37v0.027h-0.019c0.006-0.008,0.013-0.019,0.019-0.027
			v-1.175h-2.76c0.036,0.778,0,8.302,0,8.302h2.76v-4.637c0-0.249,0.018-0.495,0.091-0.673c0.2-0.495,0.654-1.011,1.416-1.011
			c1,0,1.398,0.763,1.398,1.878v4.442h2.76v-4.761C-370.22,447.672-371.582,446.485-373.397,446.485z"/>
		<path fill="#FFFFFF" d="M-381.534,442.676c-0.944,0-1.561,0.621-1.561,1.436c0,0.796,0.599,1.435,1.525,1.435h0.018
			c0.962,0,1.562-0.639,1.562-1.435C-380.008,443.297-380.589,442.676-381.534,442.676z"/>
		<rect x="-382.932" y="446.681" fill="#FFFFFF" width="2.761" height="8.302"/>
	</g>
</g>
<g id="Vimeo">
	<path fill="#FFFFFF" d="M-337.332,401.367c-8.635,0-15.633,6.999-15.633,15.633c0,8.632,6.999,15.633,15.633,15.633
		c8.633,0,15.633-7.001,15.633-15.633C-321.699,408.366-328.699,401.367-337.332,401.367L-337.332,401.367z"/>
	<path fill="#C7C7C7" d="M-337.332,401.5c8.547,0,15.5,6.953,15.5,15.5s-6.953,15.5-15.5,15.5s-15.5-6.953-15.5-15.5
		S-345.879,401.5-337.332,401.5 M-337.332,400.5c-9.113,0-16.5,7.387-16.5,16.5s7.387,16.5,16.5,16.5s16.5-7.389,16.5-16.5
		C-320.832,407.887-328.219,400.5-337.332,400.5L-337.332,400.5z"/>
	<path fill="#333333" d="M-344.266,414.243l0.563,0.738c0,0,1.162-0.916,1.549-0.458c0.387,0.458,1.865,5.984,2.359,7.004
		c0.431,0.895,1.619,2.077,2.921,1.232c1.302-0.844,5.631-4.54,6.406-8.904c0.775-4.365-5.209-3.451-5.843,0.351
		c1.583-0.95,2.429,0.388,1.619,1.902c-0.809,1.512-1.548,2.499-1.936,2.499c-0.386,0-0.684-1.012-1.126-2.782
		c-0.458-1.83-0.456-5.125-2.358-4.752C-341.907,411.426-344.266,414.243-344.266,414.243z"/>
	<path fill="#3AB9FF" d="M-337.332,433.5c-9.113,0-16.5,7.387-16.5,16.5s7.387,16.5,16.5,16.5s16.5-7.389,16.5-16.5
		C-320.832,440.887-328.219,433.5-337.332,433.5L-337.332,433.5z"/>
	<path fill="#FFFFFF" d="M-344.266,447.243l0.563,0.738c0,0,1.162-0.916,1.549-0.458c0.387,0.458,1.865,5.984,2.359,7.004
		c0.431,0.895,1.619,2.077,2.921,1.232c1.302-0.844,5.631-4.54,6.406-8.904c0.775-4.365-5.209-3.451-5.843,0.351
		c1.583-0.95,2.429,0.388,1.619,1.902c-0.809,1.512-1.548,2.499-1.936,2.499c-0.386,0-0.684-1.012-1.126-2.782
		c-0.458-1.83-0.456-5.125-2.358-4.752C-341.907,444.426-344.266,447.243-344.266,447.243z"/>
</g>
<g id="Yahoo">
	<path fill="#FFFFFF" d="M-297.332,401.367c-8.635,0-15.633,6.999-15.633,15.633c0,8.632,6.999,15.633,15.633,15.633
		c8.633,0,15.633-7.001,15.633-15.633C-281.699,408.366-288.699,401.367-297.332,401.367L-297.332,401.367z"/>
	<path fill="#C7C7C7" d="M-297.332,401.5c8.547,0,15.5,6.953,15.5,15.5s-6.953,15.5-15.5,15.5s-15.5-6.953-15.5-15.5
		S-305.879,401.5-297.332,401.5 M-297.332,400.5c-9.113,0-16.5,7.387-16.5,16.5s7.387,16.5,16.5,16.5s16.5-7.389,16.5-16.5
		C-280.832,407.887-288.219,400.5-297.332,400.5L-297.332,400.5z"/>
	<g>
		<path fill="#333333" d="M-291.852,414.287c0.1-0.02,0.247-0.053,0.415-0.089h1.294l0.201-0.297
			c0.004-0.003,0.012-0.003,0.016-0.003l0.5-0.724c-0.007,0-0.019-0.001-0.024-0.001l0.052-0.078h-7.012l0.27,1.103h1.914
			l-3.221,2.906c-0.657-0.907-2.198-2.798-3.271-4.363h2.41v-0.84l0.027-0.185c-0.007-0.001-0.021-0.004-0.027-0.004v-0.075h-7.995
			v1.104h2.371c0.92,0.72,4.439,5.114,4.586,5.553c0.059,0.41,0.112,2.833-0.06,3.017c-0.346,0.365-1.924,0.269-2.305,0.296
			l-0.132,0.75c0.695,0.021,2.958-0.057,3.662-0.057c1.386,0,3.814-0.006,4.157,0.021l0.042-0.788
			c-0.35-0.059-2.261-0.007-2.525-0.066c-0.059-0.382-0.123-2.933-0.064-3.195C-296.308,417.508-292.291,414.406-291.852,414.287z"
			/>
		<path fill="#333333" d="M-290.688,420.315l1.074,0.086l1.251-4.834c-0.208-0.007-2.108-0.187-2.354-0.234L-290.688,420.315z"/>
		<polygon fill="#333333" points="-290.873,421.091 -290.867,422.271 -290.323,422.317 -289.736,422.361 -289.563,421.206 
			-290.183,421.176 		"/>
	</g>
	<path fill="#650F6A" d="M-297.332,433.5c-9.113,0-16.5,7.387-16.5,16.5s7.387,16.5,16.5,16.5s16.5-7.389,16.5-16.5
		C-280.832,440.887-288.219,433.5-297.332,433.5L-297.332,433.5z"/>
	<g>
		<path fill="#FFFFFF" d="M-291.852,447.287c0.1-0.02,0.247-0.053,0.415-0.089h1.294l0.201-0.297
			c0.004-0.003,0.012-0.003,0.016-0.003l0.5-0.724c-0.007,0-0.019-0.001-0.024-0.001l0.052-0.078h-7.012l0.27,1.103h1.914
			l-3.221,2.906c-0.657-0.907-2.198-2.798-3.271-4.363h2.41v-0.84l0.027-0.185c-0.007-0.001-0.021-0.004-0.027-0.004v-0.075h-7.995
			v1.104h2.371c0.92,0.72,4.439,5.114,4.586,5.553c0.059,0.41,0.112,2.833-0.06,3.017c-0.346,0.365-1.924,0.269-2.305,0.296
			l-0.132,0.75c0.695,0.021,2.958-0.057,3.662-0.057c1.386,0,3.814-0.006,4.157,0.021l0.042-0.788
			c-0.35-0.059-2.261-0.007-2.525-0.066c-0.059-0.382-0.123-2.933-0.064-3.195C-296.308,450.508-292.291,447.406-291.852,447.287z"
			/>
		<path fill="#FFFFFF" d="M-290.688,453.315l1.074,0.086l1.251-4.834c-0.208-0.007-2.108-0.187-2.354-0.234L-290.688,453.315z"/>
		<polygon fill="#FFFFFF" points="-290.873,454.091 -290.867,455.271 -290.323,455.317 -289.736,455.361 -289.563,454.206 
			-290.183,454.176 		"/>
	</g>
</g>
<g id="Apple">
	<path fill="#FFFFFF" d="M-257.332,401.367c-8.635,0-15.633,6.999-15.633,15.633c0,8.632,6.999,15.633,15.633,15.633
		c8.633,0,15.633-7.001,15.633-15.633C-241.699,408.366-248.699,401.367-257.332,401.367L-257.332,401.367z"/>
	<path fill="#C7C7C7" d="M-257.332,401.5c8.547,0,15.5,6.953,15.5,15.5s-6.953,15.5-15.5,15.5s-15.5-6.953-15.5-15.5
		S-265.879,401.5-257.332,401.5 M-257.332,400.5c-9.113,0-16.5,7.387-16.5,16.5s7.387,16.5,16.5,16.5s16.5-7.389,16.5-16.5
		C-240.832,407.887-248.219,400.5-257.332,400.5L-257.332,400.5z"/>
	<g>
		<path fill="#333333" d="M-253.189,416.662c-0.02-1.921,1.568-2.844,1.639-2.89c-0.892-1.305-2.281-1.482-2.775-1.504
			c-1.183-0.12-2.307,0.696-2.907,0.696c-0.598,0-1.524-0.68-2.504-0.661c-1.289,0.019-2.477,0.749-3.14,1.903
			c-1.338,2.322-0.342,5.764,0.962,7.647c0.637,0.922,1.397,1.958,2.395,1.921c0.962-0.039,1.325-0.623,2.487-0.623
			c1.162,0,1.488,0.623,2.505,0.603c1.034-0.019,1.689-0.938,2.323-1.863c0.732-1.069,1.033-2.105,1.051-2.158
			C-251.176,419.722-253.169,418.958-253.189,416.662z"/>
		<path fill="#333333" d="M-255.101,411.021c0.53-0.643,0.888-1.534,0.791-2.423c-0.763,0.029-1.688,0.507-2.236,1.148
			c-0.491,0.569-0.92,1.476-0.806,2.349C-256.5,412.162-255.631,411.663-255.101,411.021z"/>
	</g>
	<path fill="#333333" d="M-257.332,433.5c-9.113,0-16.5,7.387-16.5,16.5s7.387,16.5,16.5,16.5s16.5-7.389,16.5-16.5
		C-240.832,440.887-248.219,433.5-257.332,433.5L-257.332,433.5z"/>
	<g>
		<path fill="#FFFFFF" d="M-253.189,449.662c-0.02-1.921,1.568-2.844,1.639-2.89c-0.892-1.305-2.281-1.482-2.775-1.504
			c-1.183-0.12-2.307,0.696-2.907,0.696c-0.598,0-1.524-0.68-2.504-0.661c-1.289,0.019-2.477,0.749-3.14,1.903
			c-1.338,2.322-0.342,5.764,0.962,7.647c0.637,0.922,1.397,1.958,2.395,1.921c0.962-0.039,1.325-0.623,2.487-0.623
			c1.162,0,1.488,0.623,2.505,0.603c1.034-0.019,1.689-0.938,2.323-1.863c0.732-1.069,1.033-2.105,1.051-2.158
			C-251.176,452.722-253.169,451.958-253.189,449.662z"/>
		<path fill="#FFFFFF" d="M-255.101,444.021c0.53-0.643,0.888-1.534,0.791-2.423c-0.763,0.029-1.688,0.507-2.236,1.148
			c-0.491,0.569-0.92,1.476-0.806,2.349C-256.5,445.162-255.631,444.663-255.101,444.021z"/>
	</g>
</g>
<g id="Windows">
	<path fill="#FFFFFF" d="M-217.332,401.367c-8.635,0-15.633,6.999-15.633,15.633c0,8.632,6.999,15.633,15.633,15.633
		c8.633,0,15.633-7.001,15.633-15.633C-201.699,408.366-208.699,401.367-217.332,401.367L-217.332,401.367z"/>
	<path fill="#C7C7C7" d="M-217.332,401.5c8.547,0,15.5,6.953,15.5,15.5s-6.953,15.5-15.5,15.5s-15.5-6.953-15.5-15.5
		S-225.879,401.5-217.332,401.5 M-217.332,400.5c-9.113,0-16.5,7.387-16.5,16.5s7.387,16.5,16.5,16.5s16.5-7.389,16.5-16.5
		C-200.832,407.887-208.219,400.5-217.332,400.5L-217.332,400.5z"/>
	<g>
		<g>
			<g>
				<defs>
					<path id="SVGID_1_" d="M-219.529,422.281c-0.791-0.528-1.63-0.995-2.84-0.995c-0.733,0-1.606,0.175-2.687,0.609l1.43-4.956
						c0.163-0.066,0.322-0.128,0.476-0.183c0.521-0.184,1.264-0.393,2.079-0.46c0.093-0.008,0.185-0.011,0.277-0.011
						c0.813,0,1.555,0.283,2.088,0.556c0.228,0.124,0.442,0.257,0.657,0.391C-218.238,417.88-219.236,421.285-219.529,422.281"/>
				</defs>
				<use xlink:href="#SVGID_1_"  overflow="visible" fill="#333333"/>
				<clipPath id="SVGID_2_">
					<use xlink:href="#SVGID_1_"  overflow="visible"/>
				</clipPath>
			</g>
		</g>
		<g>
			<g>
				<defs>
					<path id="SVGID_3_" d="M-215.702,423.835c-1.251,0-2.92-1.028-2.918-1.027l1.425-4.949c0.434,0.347,1.439,1.006,3.091,1.006
						c0.759,0,1.657-0.142,2.7-0.515l-1.374,4.804C-213.962,423.641-214.909,423.835-215.702,423.835"/>
				</defs>
				<use xlink:href="#SVGID_3_"  overflow="visible" fill="#333333"/>
				<clipPath id="SVGID_4_">
					<use xlink:href="#SVGID_3_"  overflow="visible"/>
				</clipPath>
			</g>
		</g>
		<g>
			<g>
				<defs>
					<path id="SVGID_5_" d="M-216.326,411.093v0.004c-0.294,1.005-1.163,3.985-1.456,4.977 M-217.782,416.073
						c-0.764-0.507-1.586-0.97-2.745-0.981c-0.013,0-0.025,0-0.039,0c-0.748,0-1.637,0.198-2.734,0.645l1.409-4.944
						c1.067-0.437,1.935-0.612,2.66-0.626c0.005,0,0.01,0,0.017,0c0.425,0,0.811,0.051,1.15,0.131
						c0.713,0.182,1.738,0.796,1.738,0.796"/>
				</defs>
				<use xlink:href="#SVGID_5_"  overflow="visible" fill="#333333"/>
				<clipPath id="SVGID_6_">
					<use xlink:href="#SVGID_5_"  overflow="visible"/>
				</clipPath>
			</g>
		</g>
		<g>
			<g>
				<defs>
					<path id="SVGID_7_" d="M-213.781,417.704c-1.245,0-2.279-0.43-3.074-0.961c-0.005-0.003-0.011-0.006-0.015-0.011l1.445-4.998
						c0.457,0.354,1.49,1.021,3.055,1.021c0.788,0,1.709-0.169,2.762-0.627l-1.425,4.907c-0.003,0.001-0.006,0.003-0.009,0.003
						c0,0,0,0.004,0,0.006C-212.042,417.517-212.957,417.704-213.781,417.704"/>
				</defs>
				<use xlink:href="#SVGID_7_"  overflow="visible" fill="#333333"/>
				<clipPath id="SVGID_8_">
					<use xlink:href="#SVGID_7_"  overflow="visible"/>
				</clipPath>
			</g>
		</g>
	</g>
	<path fill="#64CFFF" d="M-217.332,433.538c-9.113,0-16.5,7.387-16.5,16.5s7.387,16.5,16.5,16.5s16.5-7.389,16.5-16.5
		C-200.832,440.925-208.219,433.538-217.332,433.538L-217.332,433.538z"/>
	<g>
		<g>
			<g>
				<defs>
					<path id="SVGID_9_" d="M-219.529,455.319c-0.791-0.528-1.63-0.995-2.84-0.995c-0.733,0-1.606,0.175-2.687,0.609l1.43-4.956
						c0.163-0.066,0.322-0.128,0.476-0.183c0.521-0.184,1.264-0.393,2.079-0.46c0.093-0.008,0.185-0.011,0.277-0.011
						c0.813,0,1.555,0.283,2.088,0.556c0.228,0.124,0.442,0.257,0.657,0.391C-218.238,450.918-219.236,454.323-219.529,455.319"/>
				</defs>
				<use xlink:href="#SVGID_9_"  overflow="visible" fill="#FFFFFF"/>
				<clipPath id="SVGID_10_">
					<use xlink:href="#SVGID_9_"  overflow="visible"/>
				</clipPath>
			</g>
		</g>
		<g>
			<g>
				<defs>
					<path id="SVGID_11_" d="M-215.702,456.873c-1.251,0-2.92-1.028-2.918-1.027l1.425-4.949c0.434,0.347,1.439,1.006,3.091,1.006
						c0.759,0,1.657-0.142,2.7-0.515l-1.374,4.804C-213.962,456.679-214.909,456.873-215.702,456.873"/>
				</defs>
				<use xlink:href="#SVGID_11_"  overflow="visible" fill="#FFFFFF"/>
				<clipPath id="SVGID_12_">
					<use xlink:href="#SVGID_11_"  overflow="visible"/>
				</clipPath>
			</g>
		</g>
		<g>
			<g>
				<defs>
					<path id="SVGID_13_" d="M-216.326,444.131v0.004c-0.294,1.005-1.163,3.985-1.456,4.977 M-217.782,449.111
						c-0.764-0.507-1.586-0.97-2.745-0.981c-0.013,0-0.025,0-0.039,0c-0.748,0-1.637,0.198-2.734,0.645l1.409-4.944
						c1.067-0.437,1.935-0.612,2.66-0.626c0.005,0,0.01,0,0.017,0c0.425,0,0.811,0.051,1.15,0.131
						c0.713,0.182,1.738,0.796,1.738,0.796"/>
				</defs>
				<use xlink:href="#SVGID_13_"  overflow="visible" fill="#FFFFFF"/>
				<clipPath id="SVGID_14_">
					<use xlink:href="#SVGID_13_"  overflow="visible"/>
				</clipPath>
			</g>
		</g>
		<g>
			<g>
				<defs>
					<path id="SVGID_15_" d="M-213.781,450.742c-1.245,0-2.279-0.43-3.074-0.961c-0.005-0.003-0.011-0.006-0.015-0.011l1.445-4.998
						c0.457,0.354,1.49,1.021,3.055,1.021c0.788,0,1.709-0.169,2.762-0.627l-1.425,4.907c-0.003,0.001-0.006,0.003-0.009,0.003
						c0,0,0,0.004,0,0.006C-212.042,450.555-212.957,450.742-213.781,450.742"/>
				</defs>
				<use xlink:href="#SVGID_15_"  overflow="visible" fill="#FFFFFF"/>
				<clipPath id="SVGID_16_">
					<use xlink:href="#SVGID_15_"  overflow="visible"/>
				</clipPath>
			</g>
		</g>
	</g>
</g>
<g id="Youtube">
	<path fill="#FFFFFF" d="M-177.332,401.367c-8.635,0-15.633,6.999-15.633,15.633c0,8.632,6.999,15.633,15.633,15.633
		c8.633,0,15.633-7.001,15.633-15.633C-161.699,408.366-168.699,401.367-177.332,401.367L-177.332,401.367z"/>
	<path fill="#C7C7C7" d="M-177.332,401.5c8.547,0,15.5,6.953,15.5,15.5s-6.953,15.5-15.5,15.5s-15.5-6.953-15.5-15.5
		S-185.879,401.5-177.332,401.5 M-177.332,400.5c-9.113,0-16.5,7.387-16.5,16.5s7.387,16.5,16.5,16.5s16.5-7.389,16.5-16.5
		C-160.832,407.887-168.219,400.5-177.332,400.5L-177.332,400.5z"/>
	<g>
		<path fill="#333333" d="M-171.194,416.551h-12.275c-1.951,0-3.532,1.584-3.532,3.533v2.842c0,1.949,1.581,3.533,3.532,3.533
			h12.275c1.951,0,3.533-1.584,3.533-3.533v-2.842C-167.661,418.135-169.243,416.551-171.194,416.551z M-180.891,418.764h-1.141
			v5.668h-1.103v-5.668h-1.141v-0.965h3.384V418.764z M-177.666,424.432h-0.979v-0.535c-0.182,0.197-0.369,0.348-0.565,0.453
			c-0.194,0.105-0.384,0.156-0.568,0.156c-0.227,0-0.395-0.074-0.511-0.219c-0.113-0.148-0.172-0.363-0.172-0.656v-4.094h0.979
			v3.756c0,0.115,0.021,0.199,0.061,0.25c0.042,0.053,0.109,0.078,0.201,0.078c0.07,0,0.163-0.035,0.272-0.102
			c0.111-0.068,0.212-0.158,0.304-0.264v-3.719h0.979V424.432z M-174.116,423.422c0,0.346-0.077,0.611-0.23,0.797
			c-0.152,0.186-0.375,0.275-0.664,0.275c-0.193,0-0.363-0.033-0.513-0.104c-0.149-0.072-0.29-0.182-0.418-0.332v0.373h-0.989
			v-6.633h0.989v2.135c0.132-0.146,0.273-0.262,0.419-0.338c0.149-0.08,0.3-0.119,0.451-0.119c0.311,0,0.547,0.105,0.71,0.314
			c0.164,0.209,0.245,0.514,0.245,0.914V423.422z M-170.724,422.104h-1.871v0.922c0,0.258,0.031,0.436,0.095,0.537
			c0.066,0.1,0.176,0.146,0.332,0.146c0.163,0,0.276-0.041,0.341-0.125c0.063-0.086,0.097-0.271,0.097-0.559v-0.223h1.007v0.252
			c0,0.5-0.121,0.877-0.368,1.135c-0.244,0.25-0.611,0.377-1.098,0.377c-0.439,0-0.785-0.135-1.036-0.404
			c-0.251-0.266-0.378-0.637-0.378-1.107v-2.199c0-0.424,0.14-0.773,0.416-1.039c0.276-0.268,0.632-0.4,1.07-0.4
			c0.448,0,0.793,0.125,1.033,0.371c0.241,0.246,0.36,0.604,0.36,1.068V422.104z"/>
		<path fill="#333333" d="M-172.158,420.271c-0.156,0-0.267,0.045-0.335,0.135c-0.069,0.088-0.102,0.234-0.102,0.439v0.494h0.864
			v-0.494c0-0.205-0.035-0.352-0.104-0.439C-171.899,420.316-172.009,420.271-172.158,420.271z"/>
		<path fill="#333333" d="M-175.532,420.256c-0.069,0-0.14,0.016-0.208,0.047c-0.067,0.031-0.135,0.082-0.201,0.15v3.049
			c0.079,0.078,0.157,0.139,0.232,0.174c0.076,0.033,0.152,0.053,0.235,0.053c0.12,0,0.208-0.035,0.265-0.104
			c0.055-0.07,0.084-0.182,0.084-0.338v-2.527c0-0.166-0.033-0.291-0.103-0.377C-175.299,420.299-175.4,420.256-175.532,420.256z"/>
		<polygon fill="#333333" points="-181.862,414.852 -180.622,414.852 -180.622,411.818 -179.179,407.541 -180.438,407.541 
			-181.206,410.463 -181.284,410.463 -182.09,407.541 -183.339,407.541 -181.862,411.955 		"/>
		<path fill="#333333" d="M-177.499,414.986c0.501,0,0.894-0.131,1.181-0.395c0.284-0.264,0.427-0.621,0.427-1.084v-2.785
			c0-0.41-0.146-0.75-0.436-1.01c-0.292-0.26-0.665-0.391-1.122-0.391c-0.5,0-0.899,0.125-1.195,0.371s-0.444,0.578-0.444,0.998
			v2.795c0,0.459,0.145,0.822,0.433,1.094C-178.367,414.852-177.98,414.986-177.499,414.986z M-177.955,410.65
			c0-0.117,0.042-0.213,0.125-0.287c0.085-0.07,0.193-0.107,0.328-0.107c0.146,0,0.264,0.037,0.354,0.107
			c0.088,0.074,0.134,0.17,0.134,0.287v2.938c0,0.145-0.044,0.26-0.133,0.342s-0.206,0.123-0.355,0.123
			c-0.146,0-0.258-0.039-0.336-0.121s-0.117-0.195-0.117-0.344V410.65z"/>
		<path fill="#333333" d="M-174.229,414.93c0.207,0,0.419-0.059,0.638-0.174c0.222-0.115,0.433-0.281,0.635-0.502v0.598h1.102
			v-5.393h-1.102v4.094c-0.104,0.115-0.216,0.213-0.34,0.289s-0.227,0.113-0.308,0.113c-0.104,0-0.179-0.027-0.224-0.086
			c-0.047-0.057-0.071-0.15-0.071-0.275v-4.135h-1.1v4.506c0,0.322,0.064,0.561,0.193,0.723
			C-174.676,414.848-174.484,414.93-174.229,414.93z"/>
	</g>
	<path fill="#EE3E3E" d="M-177.332,433.5c-9.113,0-16.5,7.387-16.5,16.5s7.387,16.5,16.5,16.5s16.5-7.389,16.5-16.5
		C-160.832,440.887-168.219,433.5-177.332,433.5L-177.332,433.5z"/>
	<g>
		<path fill="#FFFFFF" d="M-171.194,449.551h-12.275c-1.951,0-3.532,1.584-3.532,3.533v2.842c0,1.949,1.581,3.533,3.532,3.533
			h12.275c1.951,0,3.533-1.584,3.533-3.533v-2.842C-167.661,451.135-169.243,449.551-171.194,449.551z M-180.891,451.764h-1.141
			v5.668h-1.103v-5.668h-1.141v-0.965h3.384V451.764z M-177.666,457.432h-0.979v-0.535c-0.182,0.197-0.369,0.348-0.565,0.453
			c-0.194,0.105-0.384,0.156-0.568,0.156c-0.227,0-0.395-0.074-0.511-0.219c-0.113-0.148-0.172-0.363-0.172-0.656v-4.094h0.979
			v3.756c0,0.115,0.021,0.199,0.061,0.25c0.042,0.053,0.109,0.078,0.201,0.078c0.07,0,0.163-0.035,0.272-0.102
			c0.111-0.068,0.212-0.158,0.304-0.264v-3.719h0.979V457.432z M-174.116,456.422c0,0.346-0.077,0.611-0.23,0.797
			c-0.152,0.186-0.375,0.275-0.664,0.275c-0.193,0-0.363-0.033-0.513-0.104c-0.149-0.072-0.29-0.182-0.418-0.332v0.373h-0.989
			v-6.633h0.989v2.135c0.132-0.146,0.273-0.262,0.419-0.338c0.149-0.08,0.3-0.119,0.451-0.119c0.311,0,0.547,0.105,0.71,0.314
			c0.164,0.209,0.245,0.514,0.245,0.914V456.422z M-170.724,455.104h-1.871v0.922c0,0.258,0.031,0.436,0.095,0.537
			c0.066,0.1,0.176,0.146,0.332,0.146c0.163,0,0.276-0.041,0.341-0.125c0.063-0.086,0.097-0.271,0.097-0.559v-0.223h1.007v0.252
			c0,0.5-0.121,0.877-0.368,1.135c-0.244,0.25-0.611,0.377-1.098,0.377c-0.439,0-0.785-0.135-1.036-0.404
			c-0.251-0.266-0.378-0.637-0.378-1.107v-2.199c0-0.424,0.14-0.773,0.416-1.039c0.276-0.268,0.632-0.4,1.07-0.4
			c0.448,0,0.793,0.125,1.033,0.371c0.241,0.246,0.36,0.604,0.36,1.068V455.104z"/>
		<path fill="#FFFFFF" d="M-172.158,453.271c-0.156,0-0.267,0.045-0.335,0.135c-0.069,0.088-0.102,0.234-0.102,0.439v0.494h0.864
			v-0.494c0-0.205-0.035-0.352-0.104-0.439C-171.899,453.316-172.009,453.271-172.158,453.271z"/>
		<path fill="#FFFFFF" d="M-175.532,453.256c-0.069,0-0.14,0.016-0.208,0.047c-0.067,0.031-0.135,0.082-0.201,0.15v3.049
			c0.079,0.078,0.157,0.139,0.232,0.174c0.076,0.033,0.152,0.053,0.235,0.053c0.12,0,0.208-0.035,0.265-0.104
			c0.055-0.07,0.084-0.182,0.084-0.338v-2.527c0-0.166-0.033-0.291-0.103-0.377C-175.299,453.299-175.4,453.256-175.532,453.256z"/>
		<polygon fill="#FFFFFF" points="-181.862,447.852 -180.622,447.852 -180.622,444.818 -179.179,440.541 -180.438,440.541 
			-181.206,443.463 -181.284,443.463 -182.09,440.541 -183.339,440.541 -181.862,444.955 		"/>
		<path fill="#FFFFFF" d="M-177.499,447.986c0.501,0,0.894-0.131,1.181-0.395c0.284-0.264,0.427-0.621,0.427-1.084v-2.785
			c0-0.41-0.146-0.75-0.436-1.01c-0.292-0.26-0.665-0.391-1.122-0.391c-0.5,0-0.899,0.125-1.195,0.371s-0.444,0.578-0.444,0.998
			v2.795c0,0.459,0.145,0.822,0.433,1.094C-178.367,447.852-177.98,447.986-177.499,447.986z M-177.955,443.65
			c0-0.117,0.042-0.213,0.125-0.287c0.085-0.07,0.193-0.107,0.328-0.107c0.146,0,0.264,0.037,0.354,0.107
			c0.088,0.074,0.134,0.17,0.134,0.287v2.938c0,0.145-0.044,0.26-0.133,0.342s-0.206,0.123-0.355,0.123
			c-0.146,0-0.258-0.039-0.336-0.121s-0.117-0.195-0.117-0.344V443.65z"/>
		<path fill="#FFFFFF" d="M-174.229,447.93c0.207,0,0.419-0.059,0.638-0.174c0.222-0.115,0.433-0.281,0.635-0.502v0.598h1.102
			v-5.393h-1.102v4.094c-0.104,0.115-0.216,0.213-0.34,0.289s-0.227,0.113-0.308,0.113c-0.104,0-0.179-0.027-0.224-0.086
			c-0.047-0.057-0.071-0.15-0.071-0.275v-4.135h-1.1v4.506c0,0.322,0.064,0.561,0.193,0.723
			C-174.676,447.848-174.484,447.93-174.229,447.93z"/>
	</g>
</g>
<g id="Delicious">
	<path fill="#FFFFFF" d="M-137.332,401.367c-8.635,0-15.633,6.999-15.633,15.633c0,8.632,6.999,15.633,15.633,15.633
		c8.633,0,15.633-7.001,15.633-15.633C-121.699,408.366-128.699,401.367-137.332,401.367L-137.332,401.367z"/>
	<path fill="#C7C7C7" d="M-137.332,401.5c8.547,0,15.5,6.953,15.5,15.5s-6.953,15.5-15.5,15.5s-15.5-6.953-15.5-15.5
		S-145.879,401.5-137.332,401.5 M-137.332,400.5c-9.113,0-16.5,7.387-16.5,16.5s7.387,16.5,16.5,16.5s16.5-7.389,16.5-16.5
		C-120.832,407.887-128.219,400.5-137.332,400.5L-137.332,400.5z"/>
	<path fill="#333333" d="M-130.365,409.73h-13.933c-0.167,0-0.303,0.136-0.303,0.304v13.933c0,0.168,0.136,0.304,0.303,0.304h13.933
		c0.167,0,0.303-0.136,0.303-0.304v-13.933C-130.062,409.866-130.198,409.73-130.365,409.73z M-137.332,423.664v-6.663h-6.662
		v-6.662h6.662v6.662h6.661v6.663H-137.332z"/>
	<path fill="#3274D1" d="M-137.332,433.5c-9.113,0-16.5,7.387-16.5,16.5s7.387,16.5,16.5,16.5s16.5-7.389,16.5-16.5
		C-120.832,440.887-128.219,433.5-137.332,433.5L-137.332,433.5z"/>
	<path fill="#FFFFFF" d="M-130.365,442.73h-13.933c-0.167,0-0.303,0.136-0.303,0.304v13.933c0,0.168,0.136,0.304,0.303,0.304h13.933
		c0.167,0,0.303-0.136,0.303-0.304v-13.933C-130.062,442.866-130.198,442.73-130.365,442.73z M-137.332,456.664v-6.663h-6.662
		v-6.662h6.662v6.662h6.661v6.663H-137.332z"/>
</g>
<g id="StumbleUpon">
	<path fill="#FFFFFF" d="M-97.332,401.367c-8.635,0-15.633,6.999-15.633,15.633c0,8.632,6.999,15.633,15.633,15.633
		c8.633,0,15.633-7.001,15.633-15.633C-81.699,408.366-88.699,401.367-97.332,401.367L-97.332,401.367z"/>
	<path fill="#C7C7C7" d="M-97.332,401.5c8.547,0,15.5,6.953,15.5,15.5s-6.953,15.5-15.5,15.5s-15.5-6.953-15.5-15.5
		S-105.879,401.5-97.332,401.5 M-97.332,400.5c-9.113,0-16.5,7.387-16.5,16.5s7.387,16.5,16.5,16.5s16.5-7.389,16.5-16.5
		C-80.832,407.887-88.219,400.5-97.332,400.5L-97.332,400.5z"/>
	<path id="icon" fill="#333333" d="M-96.415,415.339l1.185,0.551l1.766-0.526v-1.225c-0.063-2.086-1.767-3.758-3.867-3.758
		c-2.093,0-3.793,1.66-3.868,3.734v5.598c0,0.506-0.411,0.917-0.917,0.917c-0.506,0-0.917-0.411-0.917-0.917v-2.373H-106
		c0,0,0,2.376,0,2.404c0,2.141,1.735,3.875,3.875,3.875c2.122,0,3.841-1.705,3.871-3.819l0.004-5.528
		c0-0.507,0.411-0.918,0.917-0.918c0.506,0,0.917,0.411,0.917,0.918V415.339z M-91.63,417.34v2.483c0,0.507-0.411,0.917-0.917,0.917
		c-0.507,0-0.917-0.41-0.917-0.917v-2.436l-1.766,0.527l-1.185-0.553v2.416c0.019,2.125,1.747,3.841,3.875,3.841
		c2.14,0,3.875-1.734,3.875-3.875c0-0.028,0-2.404,0-2.404H-91.63z"/>
	<path fill="#EB4924" d="M-97.332,433.5c-9.113,0-16.5,7.387-16.5,16.5s7.387,16.5,16.5,16.5s16.5-7.389,16.5-16.5
		C-80.832,440.887-88.219,433.5-97.332,433.5L-97.332,433.5z"/>
	<path id="icon_1_" fill="#FFFFFF" d="M-96.415,448.339l1.185,0.551l1.766-0.526v-1.225c-0.063-2.086-1.767-3.758-3.867-3.758
		c-2.093,0-3.793,1.66-3.868,3.734v5.598c0,0.506-0.411,0.917-0.917,0.917c-0.506,0-0.917-0.411-0.917-0.917v-2.373H-106
		c0,0,0,2.376,0,2.404c0,2.141,1.735,3.875,3.875,3.875c2.122,0,3.841-1.705,3.871-3.819l0.004-5.528
		c0-0.507,0.411-0.918,0.917-0.918c0.506,0,0.917,0.411,0.917,0.918V448.339z M-91.63,450.34v2.483c0,0.507-0.411,0.917-0.917,0.917
		c-0.507,0-0.917-0.41-0.917-0.917v-2.436l-1.766,0.527l-1.185-0.553v2.416c0.019,2.125,1.747,3.841,3.875,3.841
		c2.14,0,3.875-1.734,3.875-3.875c0-0.028,0-2.404,0-2.404H-91.63z"/>
</g>
<g id="Blogger">
	<path fill="#FFFFFF" d="M-57.332,401.367c-8.635,0-15.633,6.999-15.633,15.633c0,8.632,6.999,15.633,15.633,15.633
		c8.633,0,15.633-7.001,15.633-15.633C-41.699,408.366-48.699,401.367-57.332,401.367L-57.332,401.367z"/>
	<path fill="#C7C7C7" d="M-57.332,401.5c8.547,0,15.5,6.953,15.5,15.5s-6.953,15.5-15.5,15.5s-15.5-6.953-15.5-15.5
		S-65.879,401.5-57.332,401.5 M-57.332,400.5c-9.113,0-16.5,7.387-16.5,16.5s7.387,16.5,16.5,16.5s16.5-7.389,16.5-16.5
		C-40.832,407.887-48.219,400.5-57.332,400.5L-57.332,400.5z"/>
	<path fill-rule="evenodd" clip-rule="evenodd" fill="#333333" d="M-50.986,415.916l-0.108-0.223l-0.18-0.141
		c-0.235-0.186-1.426,0.012-1.746-0.279c-0.228-0.209-0.263-0.586-0.332-1.096c-0.127-0.99-0.208-1.041-0.362-1.375
		c-0.561-1.189-2.082-2.086-3.126-2.209h-2.83c-2.226,0-4.045,1.822-4.045,4.049v4.723c0,2.223,1.819,4.043,4.045,4.043h4.649
		c2.227,0,4.035-1.82,4.047-4.043l0.025-3.27L-50.986,415.916z M-59.618,413.902h2.243c0.428,0,0.775,0.348,0.775,0.771
		s-0.347,0.775-0.775,0.775h-2.243c-0.428,0-0.775-0.352-0.775-0.775S-60.046,413.902-59.618,413.902z M-55.06,420.076h-4.559
		c-0.428,0-0.775-0.352-0.775-0.77c0-0.424,0.347-0.771,0.775-0.771h4.559c0.426,0,0.771,0.348,0.771,0.771
		C-54.289,419.725-54.634,420.076-55.06,420.076z"/>
	<path fill="#FE6500" d="M-57.332,433.5c-9.113,0-16.5,7.387-16.5,16.5s7.387,16.5,16.5,16.5s16.5-7.389,16.5-16.5
		C-40.832,440.887-48.219,433.5-57.332,433.5L-57.332,433.5z"/>
	<path fill-rule="evenodd" clip-rule="evenodd" fill="#FFFFFF" d="M-50.986,448.916l-0.108-0.223l-0.18-0.141
		c-0.235-0.186-1.426,0.012-1.746-0.279c-0.228-0.209-0.263-0.586-0.332-1.096c-0.127-0.99-0.208-1.041-0.362-1.375
		c-0.561-1.189-2.082-2.086-3.126-2.209h-2.83c-2.226,0-4.045,1.822-4.045,4.049v4.723c0,2.223,1.819,4.043,4.045,4.043h4.649
		c2.227,0,4.035-1.82,4.047-4.043l0.025-3.27L-50.986,448.916z M-59.618,446.902h2.243c0.428,0,0.775,0.348,0.775,0.771
		s-0.347,0.775-0.775,0.775h-2.243c-0.428,0-0.775-0.352-0.775-0.775S-60.046,446.902-59.618,446.902z M-55.06,453.076h-4.559
		c-0.428,0-0.775-0.352-0.775-0.77c0-0.424,0.347-0.771,0.775-0.771h4.559c0.426,0,0.771,0.348,0.771,0.771
		C-54.289,452.725-54.634,453.076-55.06,453.076z"/>
</g>
<g id="WordPress">
	<path fill="#FFFFFF" d="M-17.332,401.367c-8.635,0-15.633,6.999-15.633,15.633c0,8.632,6.999,15.633,15.633,15.633
		c8.633,0,15.633-7.001,15.633-15.633C-1.699,408.366-8.699,401.367-17.332,401.367L-17.332,401.367z"/>
	<path fill="#C7C7C7" d="M-17.332,401.5c8.547,0,15.5,6.953,15.5,15.5s-6.953,15.5-15.5,15.5s-15.5-6.953-15.5-15.5
		S-25.879,401.5-17.332,401.5 M-17.332,400.5c-9.113,0-16.5,7.387-16.5,16.5s7.387,16.5,16.5,16.5s16.5-7.389,16.5-16.5
		C-0.832,407.887-8.219,400.5-17.332,400.5L-17.332,400.5z"/>
	<path fill="#333333" d="M-26.749,417c0,3.727,2.166,6.949,5.309,8.474l-4.492-12.308C-26.456,414.339-26.749,415.634-26.749,417z
		 M-10.974,416.523c0-1.163-0.419-1.969-0.777-2.596c-0.478-0.777-0.925-1.433-0.925-2.21c0-0.865,0.655-1.67,1.582-1.67
		c0.04,0,0.081,0.005,0.121,0.008c-1.674-1.536-3.906-2.474-6.358-2.474c-3.291,0-6.185,1.688-7.868,4.245
		c0.222,0.007,0.429,0.012,0.605,0.012c0.985,0,2.51-0.121,2.51-0.121c0.507-0.027,0.567,0.717,0.06,0.777
		c0,0-0.51,0.06-1.077,0.089l3.43,10.2l2.061-6.18l-1.468-4.021c-0.507-0.029-0.987-0.089-0.987-0.089
		c-0.508-0.03-0.447-0.805,0.06-0.777c0,0,1.556,0.121,2.48,0.121c0.984,0,2.511-0.121,2.511-0.121
		c0.507-0.027,0.566,0.717,0.059,0.777c0,0-0.509,0.06-1.076,0.089l3.403,10.123l0.939-3.138
		C-11.214,418.346-10.974,417.332-10.974,416.523z M-17.165,417.825l-2.827,8.21c0.844,0.249,1.735,0.383,2.661,0.383
		c1.096,0,2.147-0.189,3.127-0.535c-0.025-0.04-0.049-0.082-0.066-0.129L-17.165,417.825z M-9.068,412.48
		c0.041,0.301,0.065,0.623,0.065,0.971c0,0.954-0.18,2.028-0.718,3.373l-2.876,8.314c2.799-1.631,4.682-4.664,4.682-8.139
		C-7.915,415.361-8.333,413.823-9.068,412.48z"/>
	<path fill="#21759B" d="M-17.332,433.5c-9.113,0-16.5,7.387-16.5,16.5s7.387,16.5,16.5,16.5s16.5-7.389,16.5-16.5
		C-0.832,440.887-8.219,433.5-17.332,433.5L-17.332,433.5z"/>
	<path fill="#FFFFFF" d="M-26.749,450c0,3.727,2.166,6.949,5.309,8.474l-4.492-12.308C-26.456,447.339-26.749,448.634-26.749,450z
		 M-10.974,449.523c0-1.163-0.419-1.969-0.777-2.596c-0.478-0.777-0.925-1.433-0.925-2.21c0-0.865,0.655-1.67,1.582-1.67
		c0.04,0,0.081,0.005,0.121,0.008c-1.674-1.536-3.906-2.474-6.358-2.474c-3.291,0-6.185,1.688-7.868,4.245
		c0.222,0.007,0.429,0.012,0.605,0.012c0.985,0,2.51-0.121,2.51-0.121c0.507-0.027,0.567,0.717,0.06,0.777
		c0,0-0.51,0.06-1.077,0.089l3.43,10.2l2.061-6.18l-1.468-4.021c-0.507-0.029-0.987-0.089-0.987-0.089
		c-0.508-0.03-0.447-0.805,0.06-0.777c0,0,1.556,0.121,2.48,0.121c0.984,0,2.511-0.121,2.511-0.121
		c0.507-0.027,0.566,0.717,0.059,0.777c0,0-0.509,0.06-1.076,0.089l3.403,10.123l0.939-3.138
		C-11.214,451.346-10.974,450.332-10.974,449.523z M-17.165,450.825l-2.827,8.21c0.844,0.249,1.735,0.383,2.661,0.383
		c1.096,0,2.147-0.189,3.127-0.535c-0.025-0.04-0.049-0.082-0.066-0.129L-17.165,450.825z M-9.068,445.48
		c0.041,0.301,0.065,0.623,0.065,0.971c0,0.954-0.18,2.028-0.718,3.373l-2.876,8.314c2.799-1.631,4.682-4.664,4.682-8.139
		C-7.915,448.361-8.333,446.823-9.068,445.48z"/>
</g>
<g id="Amazon">
	<path fill="#FFFFFF" d="M22.668,401.367c-8.635,0-15.633,6.999-15.633,15.633c0,8.632,6.999,15.633,15.633,15.633
		c8.633,0,15.633-7.001,15.633-15.633C38.301,408.366,31.301,401.367,22.668,401.367L22.668,401.367z"/>
	<path fill="#C7C7C7" d="M22.668,401.5c8.547,0,15.5,6.953,15.5,15.5s-6.953,15.5-15.5,15.5s-15.5-6.953-15.5-15.5
		S14.121,401.5,22.668,401.5 M22.668,400.5c-9.113,0-16.5,7.387-16.5,16.5s7.387,16.5,16.5,16.5s16.5-7.389,16.5-16.5
		C39.168,407.887,31.781,400.5,22.668,400.5L22.668,400.5z"/>
	<g>
		<path fill-rule="evenodd" clip-rule="evenodd" fill="#333333" d="M28.568,422.141c-0.083,0-0.168,0.02-0.247,0.057
			c-0.089,0.035-0.18,0.076-0.265,0.113l-0.126,0.053l-0.165,0.064v0.002c-1.781,0.723-3.653,1.146-5.387,1.184
			c-0.063,0.002-0.126,0.002-0.189,0.002c-2.724,0.002-4.947-1.262-7.19-2.506c-0.079-0.043-0.158-0.063-0.237-0.063
			c-0.101,0-0.204,0.037-0.279,0.107s-0.12,0.174-0.12,0.279c0,0.135,0.073,0.26,0.175,0.34c2.104,1.828,4.412,3.525,7.514,3.527
			c0.061,0,0.122-0.002,0.185-0.002c1.974-0.045,4.206-0.713,5.937-1.799l0.01-0.008c0.227-0.135,0.454-0.289,0.668-0.461
			c0.133-0.1,0.225-0.252,0.223-0.414C29.07,422.334,28.829,422.141,28.568,422.141z"/>
		<path fill-rule="evenodd" clip-rule="evenodd" fill="#333333" d="M30.971,421.131L30.971,421.131
			c-0.006-0.174-0.043-0.305-0.116-0.416l-0.007-0.008l-0.009-0.012c-0.073-0.08-0.144-0.109-0.221-0.145
			c-0.227-0.086-0.558-0.133-0.956-0.135c-0.286,0-0.602,0.027-0.92,0.096l0-0.02l-0.319,0.105l-0.006,0.002l-0.18,0.059v0.008
			c-0.212,0.088-0.404,0.199-0.583,0.328c-0.111,0.084-0.204,0.193-0.209,0.361c-0.003,0.092,0.044,0.197,0.121,0.26
			c0.078,0.064,0.167,0.084,0.247,0.084c0.019,0,0.036,0,0.052-0.004h0.015l0.013-0.002c0.156-0.033,0.383-0.055,0.65-0.094
			c0.228-0.025,0.471-0.043,0.681-0.043c0.148-0.002,0.282,0.01,0.374,0.029c0.046,0.01,0.08,0.021,0.099,0.031
			c0.006,0.002,0.011,0.004,0.014,0.006c0.004,0.014,0.01,0.047,0.009,0.092c0.001,0.178-0.073,0.502-0.175,0.82
			c-0.1,0.318-0.221,0.639-0.302,0.85c-0.019,0.051-0.031,0.104-0.031,0.162c-0.001,0.084,0.033,0.188,0.108,0.256
			c0.071,0.07,0.165,0.098,0.243,0.098h0.003c0.117-0.002,0.217-0.049,0.304-0.117c0.812-0.729,1.093-1.891,1.104-2.547
			L30.971,421.131z"/>
		<path fill-rule="evenodd" clip-rule="evenodd" fill="#333333" d="M23.557,413.318c-0.477,0.035-1.026,0.07-1.577,0.143
			c-0.842,0.111-1.685,0.258-2.381,0.588c-1.355,0.551-2.272,1.723-2.272,3.445c0,2.164,1.393,3.264,3.152,3.264
			c0.586,0,1.063-0.074,1.501-0.184c0.698-0.221,1.284-0.623,1.98-1.357c0.403,0.551,0.513,0.807,1.209,1.393
			c0.184,0.074,0.367,0.074,0.513-0.035c0.44-0.367,1.21-1.027,1.613-1.395c0.184-0.146,0.147-0.365,0.036-0.549
			c-0.402-0.514-0.806-0.953-0.806-1.943v-3.299c0-1.393,0.11-2.676-0.916-3.627c-0.843-0.77-2.163-1.063-3.189-1.063H21.98
			c-1.868,0.109-3.848,0.914-4.287,3.225c-0.074,0.293,0.146,0.404,0.293,0.438l2.052,0.258c0.221-0.035,0.33-0.221,0.366-0.402
			c0.184-0.807,0.844-1.209,1.576-1.283h0.147c0.44,0,0.917,0.184,1.173,0.551c0.293,0.439,0.257,1.025,0.257,1.539V413.318z
			 M23.154,417.678c-0.256,0.512-0.697,0.842-1.174,0.953c-0.072,0-0.182,0.037-0.293,0.037c-0.806,0-1.283-0.623-1.283-1.539
			c0-1.174,0.697-1.723,1.576-1.98c0.477-0.109,1.027-0.146,1.577-0.146v0.439C23.557,416.285,23.594,416.945,23.154,417.678z"/>
	</g>
	<path fill="#FF9801" d="M22.668,433.5c-9.113,0-16.5,7.387-16.5,16.5s7.387,16.5,16.5,16.5s16.5-7.389,16.5-16.5
		C39.168,440.887,31.781,433.5,22.668,433.5L22.668,433.5z"/>
	<g>
		<path fill-rule="evenodd" clip-rule="evenodd" fill="#FFFFFF" d="M28.568,455.141c-0.083,0-0.168,0.02-0.247,0.057
			c-0.089,0.035-0.18,0.076-0.265,0.113l-0.126,0.053l-0.165,0.064v0.002c-1.781,0.723-3.653,1.146-5.387,1.184
			c-0.063,0.002-0.126,0.002-0.189,0.002c-2.724,0.002-4.947-1.262-7.19-2.506c-0.079-0.043-0.158-0.063-0.237-0.063
			c-0.101,0-0.204,0.037-0.279,0.107s-0.12,0.174-0.12,0.279c0,0.135,0.073,0.26,0.175,0.34c2.104,1.828,4.412,3.525,7.514,3.527
			c0.061,0,0.122-0.002,0.185-0.002c1.974-0.045,4.206-0.713,5.937-1.799l0.01-0.008c0.227-0.135,0.454-0.289,0.668-0.461
			c0.133-0.1,0.225-0.252,0.223-0.414C29.07,455.334,28.829,455.141,28.568,455.141z"/>
		<path fill-rule="evenodd" clip-rule="evenodd" fill="#FFFFFF" d="M30.971,454.131L30.971,454.131
			c-0.006-0.174-0.043-0.305-0.116-0.416l-0.007-0.008l-0.009-0.012c-0.073-0.08-0.144-0.109-0.221-0.145
			c-0.227-0.086-0.558-0.133-0.956-0.135c-0.286,0-0.602,0.027-0.92,0.096l0-0.02l-0.319,0.105l-0.006,0.002l-0.18,0.059v0.008
			c-0.212,0.088-0.404,0.199-0.583,0.328c-0.111,0.084-0.204,0.193-0.209,0.361c-0.003,0.092,0.044,0.197,0.121,0.26
			c0.078,0.064,0.167,0.084,0.247,0.084c0.019,0,0.036,0,0.052-0.004h0.015l0.013-0.002c0.156-0.033,0.383-0.055,0.65-0.094
			c0.228-0.025,0.471-0.043,0.681-0.043c0.148-0.002,0.282,0.01,0.374,0.029c0.046,0.01,0.08,0.021,0.099,0.031
			c0.006,0.002,0.011,0.004,0.014,0.006c0.004,0.014,0.01,0.047,0.009,0.092c0.001,0.178-0.073,0.502-0.175,0.82
			c-0.1,0.318-0.221,0.639-0.302,0.85c-0.019,0.051-0.031,0.104-0.031,0.162c-0.001,0.084,0.033,0.188,0.108,0.256
			c0.071,0.07,0.165,0.098,0.243,0.098h0.003c0.117-0.002,0.217-0.049,0.304-0.117c0.812-0.729,1.093-1.891,1.104-2.547
			L30.971,454.131z"/>
		<path fill-rule="evenodd" clip-rule="evenodd" fill="#FFFFFF" d="M23.557,446.318c-0.477,0.035-1.026,0.07-1.577,0.143
			c-0.842,0.111-1.685,0.258-2.381,0.588c-1.355,0.551-2.272,1.723-2.272,3.445c0,2.164,1.393,3.264,3.152,3.264
			c0.586,0,1.063-0.074,1.501-0.184c0.698-0.221,1.284-0.623,1.98-1.357c0.403,0.551,0.513,0.807,1.209,1.393
			c0.184,0.074,0.367,0.074,0.513-0.035c0.44-0.367,1.21-1.027,1.613-1.395c0.184-0.146,0.147-0.365,0.036-0.549
			c-0.402-0.514-0.806-0.953-0.806-1.943v-3.299c0-1.393,0.11-2.676-0.916-3.627c-0.843-0.77-2.163-1.063-3.189-1.063H21.98
			c-1.868,0.109-3.848,0.914-4.287,3.225c-0.074,0.293,0.146,0.404,0.293,0.438l2.052,0.258c0.221-0.035,0.33-0.221,0.366-0.402
			c0.184-0.807,0.844-1.209,1.576-1.283h0.147c0.44,0,0.917,0.184,1.173,0.551c0.293,0.439,0.257,1.025,0.257,1.539V446.318z
			 M23.154,450.678c-0.256,0.512-0.697,0.842-1.174,0.953c-0.072,0-0.182,0.037-0.293,0.037c-0.806,0-1.283-0.623-1.283-1.539
			c0-1.174,0.697-1.723,1.576-1.98c0.477-0.109,1.027-0.146,1.577-0.146v0.439C23.557,449.285,23.594,449.945,23.154,450.678z"/>
	</g>
</g>
<g id="Paypal">
	<path fill="#FFFFFF" d="M62.668,401.367c-8.635,0-15.633,6.999-15.633,15.633c0,8.632,6.999,15.633,15.633,15.633
		c8.633,0,15.633-7.001,15.633-15.633C78.301,408.366,71.301,401.367,62.668,401.367L62.668,401.367z"/>
	<path fill="#C7C7C7" d="M62.668,401.5c8.547,0,15.5,6.953,15.5,15.5s-6.953,15.5-15.5,15.5s-15.5-6.953-15.5-15.5
		S54.121,401.5,62.668,401.5 M62.668,400.5c-9.113,0-16.5,7.387-16.5,16.5s7.387,16.5,16.5,16.5s16.5-7.389,16.5-16.5
		C79.168,407.887,71.781,400.5,62.668,400.5L62.668,400.5z"/>
	<g>
		<path fill="#333333" d="M63.307,415.364c0.105-0.067,0.205-0.143,0.296-0.229c0.253-0.238,0.444-0.544,0.525-0.879
			c0.141-0.502-0.022-0.938-0.358-1.18c-0.177-0.127-0.401-0.202-0.655-0.202H61.64l-0.048,0.202l-0.598,2.563h1.413
			C62.72,415.64,63.033,415.536,63.307,415.364z M62.43,413.871h0.685c0.036,0,0.057,0.006,0.067,0.009
			c0.002,0.016,0.003,0.05-0.013,0.108l-0.005,0.019l-0.004,0.018c-0.077,0.318-0.442,0.619-0.752,0.619h-0.158L62.43,413.871z"/>
		<path fill="#333333" d="M69.013,413.474c-0.287-0.356-0.649-0.653-1.061-0.881c-0.135-0.599-0.399-1.055-0.66-1.379
			c-0.701-0.872-1.85-1.394-3.072-1.394h-5.13h-0.797l-0.175,0.777l-2.273,10.108l-0.273,1.213h1.245H57.8l-0.235,1.047
			l-0.273,1.214h1.245h3.011h0.8l0.172-0.782l0.566-2.565h1.35c2.617,0,4.663-1.61,5.212-4.1
			C70,415.132,69.497,414.077,69.013,413.474z M58.024,420.923h-1.208l2.274-10.107h5.13c0.95,0,1.997,0.43,2.51,1.34
			c0.176,0.313,0.289,0.685,0.313,1.115c0.017,0.3-0.01,0.628-0.089,0.986c-0.18,0.817-0.554,1.498-1.063,2.03
			c-0.778,0.813-1.876,1.267-3.1,1.285c-0.025,0.001-0.05,0.004-0.076,0.004h-2.151l-0.737,3.347h-0.783H58.024z M68.674,416.517
			c-0.46,2.091-2.181,3.32-4.239,3.32h-2.151l-0.737,3.348h-3.011l0.285-1.266h1.006h0.8l0.172-0.781l0.564-2.566h1.351
			c2.617,0,4.662-1.609,5.212-4.1c0.046-0.21,0.077-0.412,0.096-0.604C68.611,414.431,68.942,415.304,68.674,416.517z"/>
	</g>
	<path fill="#1D3466" d="M62.668,433.5c-9.113,0-16.5,7.387-16.5,16.5s7.387,16.5,16.5,16.5s16.5-7.389,16.5-16.5
		C79.168,440.887,71.781,433.5,62.668,433.5L62.668,433.5z"/>
	<g>
		<path fill="#FFFFFF" d="M63.307,448.364c0.105-0.067,0.205-0.143,0.296-0.229c0.253-0.238,0.444-0.544,0.525-0.879
			c0.141-0.502-0.022-0.938-0.358-1.18c-0.177-0.127-0.401-0.202-0.655-0.202H61.64l-0.048,0.202l-0.598,2.563h1.413
			C62.72,448.64,63.033,448.536,63.307,448.364z M62.43,446.871h0.685c0.036,0,0.057,0.006,0.067,0.009
			c0.002,0.016,0.003,0.05-0.013,0.108l-0.005,0.019l-0.004,0.018c-0.077,0.318-0.442,0.619-0.752,0.619h-0.158L62.43,446.871z"/>
		<path fill="#FFFFFF" d="M69.013,446.474c-0.287-0.356-0.649-0.653-1.061-0.881c-0.135-0.599-0.399-1.055-0.66-1.379
			c-0.701-0.872-1.85-1.394-3.072-1.394h-5.13h-0.797l-0.175,0.777l-2.273,10.108l-0.273,1.213h1.245H57.8l-0.235,1.047
			l-0.273,1.214h1.245h3.011h0.8l0.172-0.782l0.566-2.565h1.35c2.617,0,4.663-1.61,5.212-4.1
			C70,448.132,69.497,447.077,69.013,446.474z M58.024,453.923h-1.208l2.274-10.107h5.13c0.95,0,1.997,0.43,2.51,1.34
			c0.176,0.313,0.289,0.685,0.313,1.115c0.017,0.3-0.01,0.628-0.089,0.986c-0.18,0.817-0.554,1.498-1.063,2.03
			c-0.778,0.813-1.876,1.267-3.1,1.285c-0.025,0.001-0.05,0.004-0.076,0.004h-2.151l-0.737,3.347h-0.783H58.024z M68.674,449.517
			c-0.46,2.091-2.181,3.32-4.239,3.32h-2.151l-0.737,3.348h-3.011l0.285-1.266h1.006h0.8l0.172-0.781l0.564-2.566h1.351
			c2.617,0,4.662-1.609,5.212-4.1c0.046-0.21,0.077-0.412,0.096-0.604C68.611,447.431,68.942,448.304,68.674,449.517z"/>
	</g>
</g>
<g id="Rss">
	<path fill="#FFFFFF" d="M102.668,401.367c-8.635,0-15.633,6.999-15.633,15.633c0,8.632,6.999,15.633,15.633,15.633
		c8.633,0,15.633-7.001,15.633-15.633C118.301,408.366,111.301,401.367,102.668,401.367L102.668,401.367z"/>
	<path fill="#C7C7C7" d="M102.668,401.5c8.547,0,15.5,6.953,15.5,15.5s-6.953,15.5-15.5,15.5s-15.5-6.954-15.5-15.5
		C87.168,408.453,94.121,401.5,102.668,401.5 M102.668,400.5c-9.113,0-16.5,7.387-16.5,16.5s7.387,16.5,16.5,16.5
		s16.5-7.389,16.5-16.5C119.168,407.887,111.781,400.5,102.668,400.5L102.668,400.5z"/>
	<g>
		<g>
			<path fill="#333333" d="M99.252,419.066c-0.984,0-1.782,0.8-1.782,1.783c0,0.984,0.798,1.783,1.782,1.783
				s1.783-0.799,1.783-1.783C101.035,419.866,100.236,419.066,99.252,419.066z M97.47,414.016v2.525
				c3.364,0,6.091,2.729,6.091,6.092h2.525C106.086,417.874,102.229,414.016,97.47,414.016z M97.47,409.633v2.6
				c5.743,0,10.397,4.656,10.397,10.4h2.6C110.467,415.454,104.648,409.633,97.47,409.633z"/>
		</g>
	</g>
	<path fill="#EC8F0A" d="M102.668,433.5c9.113,0,16.5,7.387,16.5,16.5s-7.387,16.5-16.5,16.5s-16.5-7.389-16.5-16.501
		S93.555,433.5,102.668,433.5z"/>
	<g>
		<g>
			<path fill="#FFFFFF" d="M99.252,452.066c-0.984,0-1.782,0.799-1.782,1.783c0,0.983,0.798,1.782,1.782,1.782
				s1.783-0.799,1.783-1.782C101.035,452.865,100.236,452.066,99.252,452.066z M97.47,447.016v2.525
				c3.364,0,6.091,2.729,6.091,6.092h2.525C106.086,450.873,102.229,447.016,97.47,447.016z M97.47,442.633v2.6
				c5.743,0,10.397,4.656,10.397,10.4h2.6C110.467,448.453,104.648,442.633,97.47,442.633z"/>
		</g>
	</g>
</g>
</svg>
